<svg width="134" height="26" viewBox="0 0 134 26" fill="none" xmlns="http://www.w3.org/2000/svg">
<g clip-path="url(#clip0_2307_16298)">
<path d="M3.61032 20.0235C3.12077 20.0246 2.63971 19.8956 2.21628 19.6499C1.79286 19.4042 1.44224 19.0505 1.20026 18.6249C0.961979 18.2024 0.843143 17.7229 0.85648 17.238C0.869816 16.7531 1.01482 16.2809 1.27597 15.872L6.2391 8.0781C6.49312 7.65923 6.85377 7.31528 7.28422 7.08139C7.71466 6.84751 8.19947 6.73207 8.68912 6.74687C9.1784 6.75859 9.65579 6.90011 10.0724 7.15692C10.489 7.41374 10.83 7.77665 11.0603 8.20849C11.5229 9.08337 11.4651 10.1359 10.911 10.9572L5.95099 18.7511C5.69946 19.1431 5.35306 19.4652 4.94389 19.6876C4.53472 19.91 4.07603 20.0256 3.61032 20.0235V20.0235Z" fill="black"/>
<path d="M12.123 20.0231C11.122 20.0231 10.2008 19.4879 9.71715 18.6278C9.47941 18.2063 9.36084 17.7282 9.37418 17.2445C9.38752 16.7608 9.53225 16.2899 9.79286 15.8822L14.7465 8.10615C14.9968 7.68139 15.3562 7.33131 15.7873 7.09224C16.2185 6.85317 16.7058 6.7338 17.1987 6.74653C18.2081 6.76861 19.1229 7.33328 19.5856 8.21656C20.0451 9.09985 19.9778 10.1587 19.4068 10.9779L14.4542 18.7539C14.2035 19.1442 13.8585 19.4651 13.451 19.6869C13.0436 19.9087 12.5869 20.0243 12.123 20.0231V20.0231Z" fill="black"/>
<path d="M20.4458 20.0891C21.857 20.0891 23.001 18.9691 23.001 17.5875C23.001 16.2059 21.857 15.0859 20.4458 15.0859C19.0346 15.0859 17.8906 16.2059 17.8906 17.5875C17.8906 18.9691 19.0346 20.0891 20.4458 20.0891Z" fill="black"/>
<path d="M131.449 15.2302C132.221 15.2302 132.683 15.7791 132.683 16.6782V19.7592H133.731V16.6077C133.731 15.0788 133.011 14.1924 131.656 14.1924C131.126 14.1924 130.285 14.3375 129.784 15.3123C129.667 15.0247 129.475 14.7742 129.227 14.5872C128.98 14.4002 128.686 14.2837 128.378 14.2502C128.184 14.2147 127.986 14.203 127.789 14.2155C127.358 14.2502 126.59 14.5183 126.303 15.1261V14.3091H125.254V19.7592H126.303V16.818C126.303 15.674 127.052 15.2302 127.801 15.2302C128.504 15.2302 128.966 15.7676 128.966 16.6666V19.7592H130.009V16.818C130.009 15.9074 130.555 15.2197 131.449 15.2302ZM121.402 18.8485C121.881 18.8591 122.344 18.6677 122.68 18.3207C123.016 17.9737 123.195 17.5015 123.177 17.0168C123.177 15.919 122.369 15.2302 121.402 15.2302C120.434 15.2302 119.627 15.919 119.627 17.0168C119.608 17.5005 119.787 17.9716 120.121 18.3175C120.456 18.6645 120.916 18.857 121.394 18.8485H121.402ZM121.402 19.8706C119.869 19.8706 118.589 18.7381 118.589 17.0105C118.589 15.2828 119.869 14.1861 121.402 14.1861C122.935 14.1861 124.225 15.2828 124.225 17.0105C124.225 18.7381 122.928 19.8759 121.395 19.8759L121.402 19.8706ZM113.19 17.0105L113.179 17.0168C113.179 15.2891 114.493 14.1924 116.036 14.1861C116.424 14.1786 116.809 14.2526 117.166 14.4033C117.524 14.554 117.845 14.778 118.111 15.0609L117.316 15.7381C117.147 15.5723 116.947 15.4416 116.727 15.3535C116.508 15.2655 116.273 15.2218 116.036 15.225C115.069 15.225 114.228 15.9137 114.228 17.0105C114.228 17.7518 114.668 18.4195 115.344 18.7034C116.02 18.9873 116.798 18.8296 117.316 18.306L118.122 18.9831C117.856 19.269 117.533 19.4957 117.174 19.6486C116.814 19.8014 116.427 19.8771 116.036 19.8706C114.504 19.8706 113.19 18.7381 113.19 17.0105ZM109.832 18.7129C109.831 18.6176 109.849 18.523 109.884 18.4346C109.92 18.3461 109.972 18.2655 110.039 18.1974C110.105 18.1292 110.185 18.0749 110.272 18.0374C110.36 17.9999 110.454 17.98 110.549 17.9789C110.645 17.98 110.739 17.9999 110.826 18.0374C110.914 18.0749 110.993 18.1292 111.06 18.1974C111.127 18.2655 111.179 18.3461 111.214 18.4346C111.25 18.523 111.268 18.6176 111.266 18.7129C111.257 18.8974 111.178 19.0714 111.044 19.1994C110.911 19.3274 110.734 19.3997 110.549 19.4017C110.365 19.3997 110.188 19.3274 110.054 19.1994C109.921 19.0714 109.842 18.8974 109.832 18.7129Z" fill="black"/>
<path fill-rule="evenodd" clip-rule="evenodd" d="M112.701 7.38044H108.967L106.35 14.1281L103.746 7.38044H100.013L104.552 18.043L101.729 25.0924H105.435L112.701 7.38044ZM89.9927 13.3111C89.9927 15.0145 91.4817 16.1355 92.9443 16.1355C94.3817 16.1355 95.7939 15.0924 95.7939 13.31C95.7939 11.5277 94.3817 10.4835 92.9443 10.4835C91.4817 10.4835 89.9927 11.6055 89.9927 13.31V13.3111ZM95.7939 19.2648V17.9157C95.0368 19.0619 93.2703 19.4951 92.3639 19.4951C89.3629 19.4951 86.3608 17.1292 86.3608 13.31C86.3608 9.49191 89.3618 7.12597 92.3639 7.12597C93.1199 7.12597 94.8865 7.37834 95.7939 8.70327V7.38465H99.2744V19.2669L95.7939 19.2659V19.2648ZM85.3703 19.2648H81.8898V17.7885C81.3083 18.8821 79.8982 19.5193 78.4345 19.5193C75.4072 19.5193 72.7332 17.1018 72.7332 13.3584C72.7332 9.54449 75.4072 7.12387 78.4345 7.12387C79.8961 7.12387 81.3104 7.73376 81.8898 8.8284V0.907227H85.3703V19.2648ZM81.8141 13.2837C81.8141 11.5024 80.5281 10.4583 79.0907 10.4583C77.6017 10.4583 76.3651 11.5781 76.3651 13.2837C76.3651 15.044 77.6017 16.1586 79.0896 16.1586C80.5544 16.1607 81.8141 14.9893 81.8141 13.2837V13.2837ZM64.1277 12.9767C64.1277 11.1702 65.0614 10.5592 66.2969 10.5592C67.482 10.5592 68.34 11.3479 68.34 12.9252V19.2627H71.8458V12.1628C71.8458 8.77898 70.1802 7.12387 67.5314 7.12387C66.1445 7.12387 64.7575 7.91252 64.1266 9.10916V7.38044H60.623V19.2627H64.1277V12.9767ZM53.5042 19.4667C50.1752 19.4667 47.3981 17.024 47.3981 13.2827C47.3981 9.53923 50.172 7.12072 53.5042 7.12072C56.8365 7.12072 59.6346 9.53923 59.6346 13.2827C59.6346 17.0261 56.8333 19.4678 53.5042 19.4678V19.4667ZM53.5042 16.0072C54.9658 16.0072 56.1782 14.9367 56.1782 13.2837C56.1782 11.6801 54.9669 10.5855 53.5042 10.5855C53.1521 10.58 52.8024 10.6462 52.4767 10.7802C52.1509 10.9142 51.8559 11.113 51.6094 11.3647C51.3616 11.6177 51.1671 11.918 51.0376 12.2476C50.908 12.5773 50.8461 12.9297 50.8555 13.2837C50.8565 14.9388 52.0668 16.0072 53.5042 16.0072ZM41.1132 10.5603C42.1469 10.5603 43.0554 11.3752 43.0554 12.9262V19.2648H46.5359V12.5161C46.5359 8.92829 44.7914 7.12177 41.9955 7.12177C41.1648 7.12177 39.6001 7.37413 38.4645 9.23324C37.8083 7.85889 36.5476 7.14595 34.6843 7.14595C34.0374 7.14266 33.4032 7.32576 32.8576 7.67334C32.312 8.02093 31.878 8.51831 31.6076 9.106V7.38149H28.0997V19.2638H31.6044V12.9767C31.6044 11.1702 32.5886 10.5592 33.6475 10.5592C34.657 10.5592 35.5634 11.3479 35.5896 12.8494V19.2638H39.0954V12.9767C39.0954 11.249 40.0039 10.5613 41.1132 10.5613V10.5603Z" fill="black"/>
</g>
<defs>
<clipPath id="clip0_2307_16298">
<rect width="132.876" height="24.1852" fill="white" transform="translate(0.855591 0.907227)"/>
</clipPath>
</defs>
</svg>
