<svg width="90" height="28" viewBox="0 0 90 28" fill="none" xmlns="http://www.w3.org/2000/svg">
<g clip-path="url(#clip0_461:9455)">
<path d="M54.5601 15.6764C54.5601 15.6764 54.3817 14.9842 54.3817 14.4712V6.44475H57.4237V21.9047L47.6844 13.3826C47.1633 12.9147 46.8549 12.3923 46.8549 12.3923C46.8549 12.3923 47.0094 12.9683 47.0094 13.4668L47.0067 21.5558H43.9629V6.15649L53.6127 14.5074C54.1303 14.9706 54.5601 15.6764 54.5601 15.6764Z" fill="black"/>
<path d="M82.1046 6.44604C86.9252 6.44604 88.1597 8.45489 88.1597 11.3421C88.1597 13.4347 86.7014 15.4849 83.7604 15.7276L83.4382 15.744C83.4382 15.744 83.7226 15.7972 84.0198 16.0995L89.3572 21.5552H85.2329L77.7818 13.5607H81.4918C84.8151 13.5607 84.9116 11.7103 84.9343 11.2439C84.9966 10.0429 84.633 9.08266 82.0988 9.08266H77.8566V21.5552H74.6953V6.44604H82.1046Z" fill="black"/>
<path d="M58.792 14.2165C58.792 7.88661 63.8058 6.22339 68.0204 6.22339C69.7078 6.22339 71.2022 6.38327 72.7748 6.73548L72.7792 9.94531C71.875 9.65141 70.0589 9.00625 68.0208 9.00625C64.0252 9.00625 62.085 10.6464 62.085 14.216C62.085 17.1399 64.1765 19.0025 68.0208 19.0025C70.0589 19.0025 72.0997 18.49 73.0881 18.1048L73.0823 21.2187C71.5114 21.5691 69.7083 21.7854 68.0208 21.7854C63.5192 21.7858 58.792 19.4737 58.792 14.2165Z" fill="black"/>
<path d="M24.5593 6.83447L27.5261 9.78708C27.4451 9.82517 27.3516 9.8722 27.2417 9.93051C27.07 10.025 26.8653 10.1515 26.6201 10.3311C26.131 10.6862 25.4938 11.2533 24.6785 12.1829L18.8802 18.667C17.8865 19.7768 16.8768 20.6561 15.9378 21.1212L12.9692 18.1676C13.0502 18.1277 13.1437 18.0835 13.2518 18.0223C13.4236 17.9297 13.6283 17.8013 13.8735 17.6245C14.3612 17.2662 15.0002 16.7024 15.8163 15.7713L21.6134 9.29804C22.6075 8.18969 23.619 7.29954 24.5593 6.83447Z" fill="black"/>
<path d="M13.0746 22.5085C14.386 22.5085 15.5915 22.2338 16.4094 21.7857C16.7832 21.5797 17.3168 21.2252 17.7756 20.8471C18.2326 20.4705 18.8805 19.8836 19.4283 19.2681L25.2324 12.8023C26.6965 11.173 27.5763 10.6698 28.1103 10.4718L31.0873 13.4517C30.4661 14.1538 23.0564 22.4929 23.0564 22.4929C22.5513 23.0695 22.0191 23.6257 21.6573 23.9761C21.3098 24.3146 20.7152 24.8192 20.4082 25.0567C18.6656 26.4058 16.3378 27.5 13.2032 27.5C6.10055 27.5 0.356934 21.3912 0.356934 14.3569C0.356934 5.63076 6.80899 0.567257 12.6852 0.567257C14.4866 0.510829 15.9319 0.83106 17.0747 1.24111C18.1307 1.62059 18.9281 2.07954 19.5066 2.39177C18.8227 2.85495 18.1609 3.48648 17.0702 4.71756L15.8785 6.06949C15.6044 5.95804 14.3887 5.50991 12.8281 5.56022C9.05757 5.67778 4.93376 8.90736 5.08239 14.2055C5.22078 19.1594 9.08516 22.5085 13.0746 22.5085Z" fill="black"/>
<path d="M24.0488 6.21431C23.6737 6.42168 23.1415 6.7753 22.68 7.15337C22.2243 7.53003 21.5769 8.11688 21.0273 8.73101L15.2245 15.1982C13.7604 16.8275 12.8802 17.3288 12.3467 17.5272L9.36963 14.5502C9.99263 13.8462 17.401 5.50848 17.401 5.50848C17.9074 4.93197 18.4383 4.37568 18.8001 4.02395C19.1476 3.68538 19.7421 3.1827 20.0519 2.94335C21.7914 1.59424 24.1223 0.5 27.2569 0.5C34.3591 0.5 40.1 6.6093 40.1 13.6417C40.1 22.3707 33.6493 27.4313 27.7717 27.4313C25.9717 27.4892 24.525 27.169 23.384 26.7556C22.3254 26.3775 21.5248 25.9158 20.9476 25.6049C21.6703 25.0896 22.2889 24.5243 23.388 23.2834L24.578 21.9315C24.8521 22.041 26.0683 22.4896 27.6302 22.4407C31.3994 22.3218 35.5245 19.0889 35.3759 13.7922C35.2361 8.84057 31.3691 5.49014 27.3819 5.49014C26.0683 5.49014 24.8681 5.76617 24.0488 6.21431Z" fill="black"/>
</g>
<defs>
<clipPath id="clip0_461:9455">
<rect width="89" height="27" fill="white" transform="translate(0.356934 0.5)"/>
</clipPath>
</defs>
</svg>
