<svg width="80" height="21" viewBox="0 0 80 21" fill="none" xmlns="http://www.w3.org/2000/svg">
<g clip-path="url(#clip0_23_1695)">
<g clip-path="url(#clip1_23_1695)">
<path d="M0 4.64173H6.51832V16.0488H0V19.308H17.1106V16.0488H10.5923V4.64173H17.1106V1.38257H0V4.64173Z" fill="#080808"/>
<path d="M41.5454 19.308H58.656V16.0488H44.8046V11.9748H56.2116V8.71568H44.8046V4.64173H58.656V1.38257H41.5454V19.308Z" fill="#080808"/>
<path d="M70.5501 0.567871C68.01 0.619085 65.5929 1.67145 63.8247 3.49595C62.0566 5.32045 61.0807 7.76942 61.1092 10.3099C61.054 11.5853 61.2575 12.8587 61.7075 14.0533C62.1575 15.248 62.8446 16.3391 63.7276 17.2611C64.6105 18.1831 65.6709 18.9169 66.845 19.4181C68.019 19.9194 69.2824 20.1778 70.559 20.1778C71.8356 20.1778 73.0989 19.9194 74.273 19.4181C75.447 18.9169 76.5075 18.1831 77.3904 17.2611C78.2734 16.3391 78.9605 15.248 79.4105 14.0533C79.8605 12.8587 80.064 11.5853 80.0088 10.3099C80.037 9.04666 79.8137 7.7904 79.3519 6.61424C78.8901 5.43808 78.1989 4.36551 77.3187 3.45893C76.4385 2.55236 75.3868 1.82989 74.2248 1.33356C73.0628 0.837228 71.8137 0.576951 70.5501 0.567871V0.567871ZM70.5501 16.784C69.7194 16.7713 68.8994 16.5944 68.1373 16.2634C67.3752 15.9324 66.6862 15.4539 66.1099 14.8553C65.5336 14.2568 65.0815 13.5502 64.7796 12.7762C64.4776 12.0021 64.3319 11.176 64.3506 10.3454C64.3506 8.70115 65.0038 7.12428 66.1664 5.96165C67.3291 4.79902 68.9059 4.14586 70.5501 4.14586C72.1943 4.14586 73.7712 4.79902 74.9338 5.96165C76.0965 7.12428 76.7496 8.70115 76.7496 10.3454C76.7684 11.176 76.6226 12.0021 76.3207 12.7762C76.0188 13.5502 75.5666 14.2568 74.9903 14.8553C74.4141 15.4539 73.725 15.9324 72.963 16.2634C72.2009 16.5944 71.3809 16.7713 70.5501 16.784Z" fill="#080808"/>
<path d="M29.5716 1.38257H21.1846V19.308H29.4122C30.5976 19.3319 31.7755 19.113 32.8731 18.6646C33.9708 18.2162 34.965 17.5479 35.7947 16.7009C36.6244 15.8538 37.2718 14.8458 37.6973 13.7391C38.1228 12.6324 38.3172 11.4503 38.2686 10.2656C38.2863 5.2971 34.8677 1.54198 29.5716 1.38257ZM29.4919 16.0488H24.4437V4.64173H29.4919C32.751 4.72144 34.8057 7.0861 34.8057 10.3453C34.8057 13.6044 32.7688 15.9691 29.4919 16.0488Z" fill="#080808"/>
</g>
</g>
<defs>
<clipPath id="clip0_23_1695">
<rect width="80" height="19.555" fill="white" transform="translate(0 0.567871)"/>
</clipPath>
<clipPath id="clip1_23_1695">
<rect width="80" height="19.555" fill="white" transform="translate(0 0.567871)"/>
</clipPath>
</defs>
</svg>
