<svg width="65" height="36" viewBox="0 0 65 36" fill="none" xmlns="http://www.w3.org/2000/svg">
<g clip-path="url(#clip0_3313_5901)">
<path d="M49.4903 7.99249C48.7328 7.9929 47.9923 7.76867 47.3623 7.34815C46.7323 6.92764 46.2412 6.32973 45.951 5.63007C45.6609 4.9304 45.5847 4.1604 45.7323 3.41746C45.8798 2.67452 46.2443 1.99202 46.7798 1.45628C47.3152 0.920543 47.9975 0.555636 48.7404 0.407716C49.4832 0.259795 50.2533 0.335506 50.9531 0.625272C51.6529 0.915039 52.2511 1.40584 52.672 2.0356C53.0928 2.66537 53.3174 3.4058 53.3174 4.16324C53.3158 5.17796 52.9121 6.15068 52.1948 6.86838C51.4775 7.58609 50.505 7.9903 49.4903 7.99249Z" fill="#080808"/>
<path d="M60.7607 24.0839H56.6187L55.6391 15.0979H55.4196L52.28 24.0839H46.7111L43.5756 15.0979H43.3561L42.3786 24.0839H38.2366C38.2366 24.0839 39.065 16.5249 39.4046 13.4681C39.7132 10.6225 41.2023 9.17285 43.8241 9.17285H45.7046L49.4158 19.6583H49.5753L53.2865 9.17285H55.1503C57.7598 9.17285 59.2488 10.6225 59.576 13.4681C59.9115 16.4213 60.7607 24.0839 60.7607 24.0839ZM13.1901 9.17285L20.2915 24.0839H14.9981L13.6623 20.8926H6.27923L4.94137 24.0839H0C0 24.0839 3.54346 16.7506 4.75084 14.0687C6.17361 10.9187 7.38928 9.17285 10.3425 9.17285H13.1901ZM9.88896 12.2793L7.40377 18.1174H12.5398L10.0505 12.2793H9.88896ZM36.7662 19.8716C36.7662 22.4996 34.8112 24.0881 31.1497 24.0881H21.3767V13.3645C21.3767 10.9974 22.7415 9.17285 25.703 9.17285H30.7355C34.2148 9.17285 35.8819 10.5749 35.8819 12.9628C35.8819 14.5553 34.8713 15.5908 33.4816 16.0962V16.2142C34.4653 16.3281 36.7662 17.3677 36.7662 19.8674V19.8716ZM29.4515 15.1663C30.5885 15.1663 31.4355 14.69 31.4355 13.6027C31.4355 12.6397 30.7396 12.037 29.4515 12.037H25.85V15.1663H29.4515ZM29.6379 21.226C30.9923 21.226 32.0009 20.6937 32.0009 19.4988C32.0009 18.2251 30.9322 17.7467 29.6379 17.7467H25.85V21.226H29.6379Z" fill="#080808"/>
<path d="M21.3767 29.0688H22.99C24.1767 29.0688 24.5722 29.6901 24.5722 30.4253C24.573 30.6151 24.5298 30.8025 24.4461 30.9727C24.3624 31.143 24.2404 31.2917 24.0897 31.407C24.2962 31.5209 24.466 31.6912 24.5794 31.898C24.6927 32.1049 24.7448 32.3397 24.7296 32.575C24.7296 33.3724 24.2947 34.0123 23.0293 34.0123H21.3726L21.3767 29.0688ZM23.0169 29.7274H22.0746V31.1253H23.0687C23.6755 31.1253 23.8267 30.7691 23.8267 30.4253C23.8267 30.0816 23.7086 29.7274 23.0107 29.7274H23.0169ZM22.0746 33.3516H23.0563C23.8329 33.3516 23.9841 32.9561 23.9841 32.573C23.9841 32.0262 23.7418 31.7818 23.0687 31.7818H22.0746V33.3516Z" fill="#080808"/>
<path d="M26.0946 33.047C26.0946 33.3577 26.3244 33.4612 26.6268 33.4612C26.8901 33.4659 27.1511 33.4122 27.391 33.3038V30.7109H28.0703V34.0059H27.6147L27.5505 33.8216C27.2746 33.9977 26.9541 34.0911 26.6268 34.0908C25.8171 34.0908 25.4153 33.6952 25.4153 33.0304V30.7109H26.0946V33.047Z" fill="#080808"/>
<path d="M29.2962 29.1538C29.3876 29.1534 29.4771 29.1801 29.5533 29.2306C29.6295 29.2811 29.6891 29.3531 29.7243 29.4375C29.7596 29.5218 29.7691 29.6147 29.7515 29.7045C29.7339 29.7942 29.6901 29.8767 29.6256 29.9415C29.561 30.0063 29.4788 30.0505 29.3891 30.0684C29.2995 30.0864 29.2065 30.0774 29.122 30.0425C29.0375 30.0076 28.9652 29.9484 28.9144 29.8724C28.8636 29.7964 28.8364 29.7071 28.8364 29.6156C28.8362 29.5551 28.8478 29.4951 28.8708 29.4391C28.8938 29.383 28.9276 29.3321 28.9704 29.2892C29.0131 29.2463 29.0638 29.2122 29.1198 29.189C29.1757 29.1658 29.2356 29.1538 29.2962 29.1538ZM29.758 34.0952C29.2361 34.0952 28.9607 33.8881 28.9607 33.2979V30.7112H29.6255V33.3144C29.6255 33.4325 29.6917 33.4656 29.8823 33.4656V34.0869L29.758 34.0952Z" fill="#080808"/>
<path d="M31.4646 34.0951C30.9427 34.0951 30.6672 33.888 30.6672 33.2978V29.0688H31.332V33.3185C31.332 33.4366 31.3983 33.4697 31.5888 33.4697V34.091L31.4646 34.0951Z" fill="#080808"/>
<path d="M35.0742 34.0102H34.6331L34.5668 33.8259C34.2941 33.9921 33.983 34.0848 33.6638 34.0951C32.5517 34.0951 32.2349 33.3972 32.2349 32.3638C32.2349 31.3304 32.5517 30.6304 33.6638 30.6304C33.9226 30.6331 34.1774 30.694 34.4094 30.8085V29.0688H35.0742V34.0102ZM33.6638 31.2558C33.0198 31.2558 32.9204 31.7632 32.9204 32.3638C32.9204 32.9644 33.0198 33.4697 33.6638 33.4697C33.9212 33.4759 34.1765 33.422 34.4094 33.3123V31.407C34.3309 31.3708 34.2491 31.3423 34.165 31.3221C34.0015 31.2784 33.8331 31.2562 33.6638 31.2558Z" fill="#080808"/>
<path d="M36.3003 29.1538C36.3918 29.1534 36.4813 29.1801 36.5575 29.2306C36.6337 29.2811 36.6932 29.3531 36.7285 29.4375C36.7638 29.5218 36.7732 29.6147 36.7556 29.7045C36.738 29.7942 36.6942 29.8767 36.6297 29.9415C36.5652 30.0063 36.4829 30.0505 36.3933 30.0684C36.3036 30.0864 36.2107 30.0774 36.1262 30.0425C36.0417 30.0076 35.9694 29.9484 35.9186 29.8724C35.8677 29.7964 35.8406 29.7071 35.8406 29.6156C35.8403 29.5551 35.852 29.4951 35.875 29.4391C35.898 29.383 35.9318 29.3321 35.9745 29.2892C36.0172 29.2463 36.068 29.2122 36.1239 29.189C36.1798 29.1658 36.2398 29.1538 36.3003 29.1538ZM36.7622 34.0952C36.2403 34.0952 35.9648 33.8881 35.9648 33.2979V30.7112H36.6296V33.3144C36.6296 33.4325 36.6959 33.4656 36.8864 33.4656V34.0869L36.7622 34.0952Z" fill="#080808"/>
<path d="M39.6469 31.6785C39.6469 31.3679 39.417 31.2643 39.1146 31.2643C38.8514 31.2596 38.5904 31.3134 38.3504 31.4217V34.0187H37.6711V30.7114H38.1288L38.193 30.8957C38.4689 30.7195 38.7894 30.6261 39.1167 30.6265C39.9264 30.6265 40.3282 31.022 40.3282 31.6868V34.0063H39.6489L39.6469 31.6785Z" fill="#080808"/>
<path d="M42.3993 33.1963C42.3227 33.2006 42.246 33.2006 42.1694 33.1963C42.0907 33.2502 42.0037 33.3289 42.0037 33.4034C42.0037 33.478 42.0369 33.5091 42.1218 33.5215L43.1697 33.6457C43.791 33.7182 44.1182 33.975 44.1182 34.588C44.1182 35.4164 43.3147 35.754 42.3993 35.754C41.4839 35.754 40.9041 35.4392 40.9041 34.6812C40.909 34.509 40.9639 34.342 41.0621 34.2004C41.1602 34.0589 41.2975 33.9489 41.457 33.8839C41.374 33.7716 41.3323 33.6341 41.339 33.4946C41.3415 33.4037 41.3634 33.3145 41.403 33.2328C41.4426 33.151 41.4991 33.0786 41.5688 33.0203C41.2064 32.7904 41.0822 32.3887 41.0822 31.933C41.0822 31.2351 41.3845 30.649 42.3993 30.649C42.5999 30.647 42.7996 30.6756 42.9916 30.7339H44.054V31.1813L43.6046 31.3076C43.6826 31.5053 43.7206 31.7164 43.7165 31.9289C43.7206 32.6123 43.4203 33.1963 42.3993 33.1963ZM42.1922 34.1179C41.8443 34.2298 41.5709 34.3954 41.5709 34.6647C41.5709 35.0209 41.8484 35.1141 42.3993 35.1141C42.9502 35.1141 43.4348 34.994 43.4348 34.5715C43.4348 34.3416 43.3354 34.2505 43.0517 34.2173L42.1922 34.1179ZM42.3993 32.5688C43.0061 32.5688 43.0786 32.252 43.0786 31.9103C43.0786 31.5685 43.0061 31.2517 42.3993 31.2517C41.7925 31.2517 41.7283 31.5685 41.7283 31.9103C41.7283 32.252 41.7925 32.575 42.3993 32.575V32.5688Z" fill="#080808"/>
<path d="M48.9374 29.0688H49.6954L47.9413 34.0951H47.4608L45.7087 29.0688H46.4667L47.7093 32.9354L48.9374 29.0688Z" fill="#080808"/>
<path d="M50.762 31.256C50.378 31.2659 49.9979 31.3358 49.6354 31.4631V30.8418C49.9976 30.7149 50.3782 30.6485 50.762 30.645C51.7768 30.645 52.0398 31.1069 52.0398 31.7903V34.0249H51.5904L51.5304 33.853C51.2505 34.0167 50.933 34.1052 50.6088 34.1098C49.6934 34.1098 49.4097 33.5568 49.4097 32.9832C49.4097 32.4633 49.652 32.0015 50.6274 31.9228L51.373 31.8628V31.7965C51.3709 31.4279 51.2383 31.256 50.762 31.256ZM50.617 32.4675C50.2029 32.5068 50.0827 32.7388 50.0827 32.9687C50.0827 33.1985 50.1366 33.4698 50.617 33.4698C50.8809 33.4639 51.1392 33.3928 51.3688 33.2627V32.3991L50.617 32.4675Z" fill="#080808"/>
<path d="M53.7297 34.0951C53.2078 34.0951 52.9324 33.888 52.9324 33.2978V29.0688H53.5972V33.3185C53.5972 33.4366 53.6634 33.4697 53.854 33.4697V34.091L53.7297 34.0951Z" fill="#080808"/>
<path d="M55.2126 33.047C55.2126 33.3577 55.4425 33.4612 55.7448 33.4612C56.0087 33.4656 56.2703 33.4119 56.5111 33.3038V30.7109H57.1821V34.0059H56.7286L56.6623 33.8216C56.3864 33.9977 56.0659 34.0911 55.7386 34.0908C54.9289 34.0908 54.5271 33.6952 54.5271 33.0304V30.7109H55.2064L55.2126 33.047Z" fill="#080808"/>
<path d="M58.6318 32.6786C58.6856 33.1342 58.8761 33.4697 59.4042 33.4697C59.7951 33.4779 60.1826 33.3964 60.5371 33.2315V33.8715C60.1801 34.0271 59.7936 34.1034 59.4042 34.0951C58.29 34.0951 57.9338 33.4034 57.9338 32.3638C57.9338 31.3242 58.29 30.6304 59.4042 30.6304C60.5557 30.6304 60.7152 31.4401 60.7152 32.3638V32.6786H58.6318ZM58.6318 32.0925H60.0214C60.0214 31.6576 59.9489 31.2641 59.4105 31.2641C58.872 31.2641 58.6773 31.6182 58.6318 32.0925Z" fill="#080808"/>
<path d="M63.6374 21.4248C63.9069 21.4248 64.1704 21.5047 64.3944 21.6545C64.6185 21.8042 64.7932 22.017 64.8963 22.266C64.9995 22.515 65.0265 22.789 64.9739 23.0534C64.9213 23.3177 64.7915 23.5605 64.6009 23.7511C64.4104 23.9417 64.1676 24.0715 63.9032 24.124C63.6389 24.1766 63.3649 24.1496 63.1159 24.0465C62.8669 23.9433 62.6541 23.7687 62.5043 23.5446C62.3546 23.3205 62.2747 23.057 62.2747 22.7875C62.2752 22.4263 62.419 22.08 62.6744 21.8245C62.9298 21.5691 63.2761 21.4254 63.6374 21.4248ZM63.6374 23.9535C63.8681 23.9539 64.0937 23.8859 64.2857 23.758C64.4777 23.6301 64.6275 23.4482 64.7161 23.2351C64.8046 23.0221 64.828 22.7876 64.7833 22.5613C64.7385 22.335 64.6276 22.1271 64.4646 21.9638C64.3017 21.8005 64.0939 21.6893 63.8677 21.6441C63.6414 21.5989 63.4069 21.6219 63.1937 21.7101C62.9805 21.7983 62.7983 21.9477 62.6701 22.1395C62.5419 22.3313 62.4735 22.5568 62.4735 22.7875C62.4735 23.0964 62.596 23.3926 62.8142 23.6112C63.0325 23.8298 63.3285 23.9529 63.6374 23.9535ZM63.3412 23.5683H63.1445V21.9964H63.7471C64.1033 21.9964 64.2421 22.1496 64.2421 22.4334C64.2463 22.4888 64.2393 22.5445 64.2216 22.5971C64.2038 22.6498 64.1757 22.6983 64.1387 22.7399C64.1018 22.7814 64.0569 22.8151 64.0067 22.839C63.9565 22.8628 63.9021 22.8763 63.8465 22.8786L64.3167 23.5683H64.093L63.6229 22.8786H63.3412V23.5683ZM63.3412 22.7026H63.6022C63.8093 22.7026 64.0536 22.7026 64.0536 22.4334C64.0536 22.2263 63.8693 22.1724 63.7016 22.1724H63.3495L63.3412 22.7026Z" fill="#080808"/>
</g>
<defs>
<clipPath id="clip0_3313_5901">
<rect width="65" height="35.4201" fill="white" transform="translate(0 0.333984)"/>
</clipPath>
</defs>
</svg>
