<svg width="90" height="28" viewBox="0 0 90 28" fill="none" xmlns="http://www.w3.org/2000/svg">
<g clip-path="url(#clip0_2307_16364)">
<path d="M57.8219 6.81119C53.9449 6.82981 50.7867 10.0164 50.8045 13.984C50.8223 17.9517 54.0121 21.1083 57.8891 21.0905C61.7661 21.0727 64.9252 17.8853 64.9066 13.9193C64.8879 9.95325 61.6989 6.79419 57.8203 6.81281L57.8219 6.81119ZM57.8754 18.1807C56.7762 18.1872 55.7199 17.7558 54.9389 16.9828C54.1578 16.2099 53.7248 15.1568 53.7126 14.0577C53.7005 12.9585 54.1376 11.9023 54.9106 11.1212C55.6835 10.3401 56.7365 9.90712 57.8357 9.89498C58.9349 9.88284 59.9911 10.3199 60.7722 11.0929C61.5532 11.8658 61.9863 12.9189 61.9984 14.018C62.0097 16.2236 60.0801 18.1694 57.8754 18.1807ZM73.529 10.1742C71.5015 10.1839 69.9224 11.8658 69.9321 13.8934L69.9644 20.6801L66.879 20.6947L66.8167 7.20779L69.9021 7.19322L69.9126 9.30817C69.9126 9.30817 71.2239 7.18756 73.869 7.17542L74.7512 7.17056L74.7658 10.1669L73.529 10.1742ZM42.751 7.32273L45.087 16.5676L47.5119 7.30006L50.5973 7.2863L46.7802 20.7991L43.7838 20.8129L41.3605 11.3932L39.0246 20.8347L36.0274 20.8485L31.9983 7.38019L34.9946 7.36643L37.6818 16.6097L39.8429 7.34377L42.751 7.32273ZM83.767 13.3009C85.8755 12.0577 87.3648 9.75819 87.3526 7.1139L84.2672 7.12847C84.2786 9.42067 82.4348 11.2807 80.2316 11.2888L79.7905 11.2904L79.7419 0.625L76.6565 0.639568L76.7512 20.6478L79.835 20.634L79.8059 14.2884L80.1579 14.2867C80.5108 14.2851 80.8645 14.46 80.9544 14.7238L85.3008 20.6081L88.9148 20.5919L83.767 13.3009Z" fill="black"/>
<path d="M24.8563 6.96659C21.5079 6.98278 18.9615 9.19809 18.0089 12.7278C16.4103 10.2673 15.163 7.45304 14.4475 5.07666L10.9226 5.09285L10.9663 14.4357C10.9702 15.324 10.6212 16.1775 9.99604 16.8085C9.37086 17.4396 8.52076 17.7966 7.63244 17.8011C6.74415 17.805 5.89066 17.456 5.25958 16.8308C4.62851 16.2056 4.27148 15.3555 4.26698 14.4672L4.22247 5.12441L0.695944 5.1406L0.739651 14.4834C0.758267 18.3604 3.85581 21.4329 7.64701 21.4143C11.4382 21.3956 14.509 18.2965 14.4912 14.4187L14.4831 12.8323C15.1938 14.2382 16.0825 15.7323 17.0594 17.0508L14.904 27.373L18.5172 27.3568L20.0712 19.857C21.4852 20.7327 23.0659 21.2532 24.9243 21.2443C28.8029 21.2257 31.962 18.0391 31.9417 13.984C31.927 12.1157 31.1737 10.3291 29.8464 9.01428C28.5191 7.69935 26.7255 6.96294 24.8571 6.96578L24.8563 6.96659ZM24.9065 17.632C23.4965 17.6384 22.0842 17.0282 20.934 16.0634L21.2796 14.6526V14.5716C21.5386 13.071 22.3173 10.5117 24.9624 10.5004C25.895 10.4989 26.7905 10.8658 27.454 11.5212C28.1174 12.1767 28.4953 13.0676 28.5051 14.0002C28.4257 16.0277 26.7592 17.6222 24.9073 17.6312L24.9065 17.632Z" fill="black"/>
</g>
<defs>
<clipPath id="clip0_2307_16364">
<rect width="89.0332" height="27.5194" fill="white" transform="translate(0.288086 0.240234)"/>
</clipPath>
</defs>
</svg>
