<svg width="90" height="28" viewBox="0 0 90 28" fill="none" xmlns="http://www.w3.org/2000/svg">
<path fill-rule="evenodd" clip-rule="evenodd" d="M89.0747 4.22009C89.1709 4.59799 88.7474 4.96102 88.5272 5.23874C86.6794 7.55276 84.6302 10.2903 82.1684 12.0479C82.3459 12.9683 82.2517 14.1903 81.9303 14.8648C82.575 15.686 83.2594 16.4636 83.6581 17.5269C83.1335 20.3041 81.9154 22.4585 79.9684 23.8669C78.068 25.2397 75.5001 25.7812 72.587 26.4497C66.9542 27.7441 57.6862 29.0206 53.5075 25.6662C48.9826 28.3125 39.8386 28.6616 35.6063 25.5094C32.598 29.3053 20.7304 28.972 22.4959 21.4398C20.2949 23.1012 17.0406 25.3914 13.9361 26.6848C10.3357 28.1825 3.51759 28.0139 4.199 22.9276C4.28133 22.3216 4.53822 21.9794 4.82784 21.4398C3.77448 19.6079 3.10894 18.3363 2.47217 16.7434C1.86217 15.2159 0.931803 13.4771 0.822697 11.3436C0.594569 6.80489 4.14346 3.92749 7.65664 2.57558C9.44894 1.88624 10.905 0.887431 12.6804 0.38654C15.3336 -0.367277 17.608 1.08779 17.7835 3.51686C20.8682 2.60435 24.6244 1.59761 28.698 2.18677C31.9414 -0.327603 38.2754 1.22566 42.4383 2.41986C43.3796 2.69064 44.6462 3.3899 45.3434 3.36015C45.9336 3.33634 46.9999 2.53789 47.6188 2.26414C50.5398 0.972731 54.3585 -0.401992 58.5333 0.30719C59.3238 0.4401 60.0468 0.857675 60.8879 0.932065C61.4592 0.984633 62.1575 0.806098 62.7725 0.777334C72.5294 0.302231 80.6528 2.91282 89.0757 4.22009H89.0747ZM61.7528 3.90865C60.756 4.02767 60.0488 5.11476 59.3972 5.47381C59.4448 5.46885 59.4894 5.46092 59.4745 5.39446C59.5936 4.86084 59.8217 4.43533 59.8673 3.83029C54.6422 1.99534 49.5569 4.67734 45.8146 6.72554C42.8211 8.36212 40.151 10.2863 38.2764 12.2036C38.9539 11.053 39.673 9.91438 40.4754 8.8392C41.2887 7.74716 42.1943 6.75926 42.9104 5.78724C41.3452 5.37859 39.7761 4.94713 38.1971 4.61188C35.9535 4.13579 32.8331 3.34725 30.9743 4.3778C30.4367 4.67536 29.9963 5.40835 29.4826 5.47381C29.057 5.52836 28.3568 5.2189 27.8331 5.16137C25.9148 4.94812 24.1493 5.12567 22.4155 5.47381C20.7918 5.79815 17.359 6.37343 16.9186 7.89892C16.6369 8.87888 17.2658 9.82809 17.1547 10.7971C17.0476 11.7493 16.1291 13.011 15.6629 13.7707C15.0926 14.7031 14.5124 15.5283 13.5423 15.9618C12.9551 13.0457 13.5939 10.452 14.0928 7.97926C14.4003 6.45476 15.0202 4.89456 14.4866 3.36015C12.9889 3.15285 11.7282 4.33416 10.2454 4.92432C7.46025 6.0352 4.35869 7.0479 3.96492 10.2476C3.74274 12.0499 4.42217 13.1955 4.90719 14.475C5.86561 17.0351 7.15974 19.4565 8.75562 21.6759C8.33904 22.4376 7.36007 22.636 7.26188 23.7092C7.70524 24.3341 8.62767 24.4174 9.5392 24.4144C12.1735 24.4085 14.3338 23.0873 16.2908 21.9883C20.5518 19.5979 23.4143 15.9191 26.4207 12.4397C26.9483 11.8277 27.3828 11.0907 28.0701 10.7178C28.7446 13.8094 27.4324 15.4629 26.498 17.9961C26.138 18.9721 25.0023 22.027 25.5558 23.4741C26.1628 25.0661 31.3314 25.1355 32.7012 24.103C33.3915 23.5823 33.6662 22.4069 34.0372 21.6759C34.5103 20.7356 34.92 19.9243 35.2929 19.0931C35.3137 22.522 37.8688 23.5287 40.6311 24.2587C46.5029 25.806 52.4244 23.0417 55.6281 21.1294C55.2274 23.6695 56.2172 23.9244 58.2198 24.3381C63.3973 25.4033 68.6116 24.1744 72.823 23.1627C76.6844 22.2363 79.7889 21.5817 80.3612 17.761C79.7433 17.2284 78.1989 17.2948 77.1426 17.4496C74.0281 17.9038 71.0129 19.473 66.857 19.1704C66.0982 19.1159 64.4606 18.8521 64.3426 18.3889C64.1601 17.6668 65.4575 17.1609 66.5445 16.9804C69.659 16.4547 74.162 16.9854 76.6705 16.0381C77.8746 15.5859 79.3277 14.2786 79.1819 12.8305C79.0866 11.8525 77.8062 11.3407 76.5911 11.2663C73.1553 11.052 70.6994 13.0516 67.094 12.3613C67.5443 11.794 67.6257 10.8586 68.191 10.4053C70.8284 10.3498 73.3904 10.8715 75.8859 10.7178C79.3554 10.5016 81.3114 9.04452 82.9529 7.11733C83.1285 6.90904 83.5689 6.68587 83.4241 6.33574C77.3975 5.42124 69.1819 3.0001 61.7518 3.90865H61.7528ZM49.8177 9.93323C49.4309 11.6888 48.6225 13.6983 48.1693 15.6464C50.6648 15.6821 53.2972 15.1742 55.8632 15.0205C56.2103 14.5583 56.3809 13.9195 56.5704 13.2986C57.0851 14.0247 57.4472 15.3835 56.9631 16.4289C53.0661 16.3744 50.2651 19.5563 46.4424 19.5593C44.7305 19.5612 43.2754 18.5803 44.0858 16.663C45.2304 13.9602 48.0691 12.0717 49.8177 9.93323ZM58.926 7.03699C59.66 7.87114 61.2668 7.83544 62.223 8.44742C60.9326 8.77771 59.3079 8.77572 58.1395 9.22801C58.4152 8.5099 58.6622 7.76601 58.926 7.03798V7.03699Z" fill="black"/>
</svg>
