<svg width="117" height="24" viewBox="0 0 117 24" fill="none" xmlns="http://www.w3.org/2000/svg">
<g clip-path="url(#clip0_2307_16308)">
<path d="M14.1261 4.91277L7.42897 9.18003L14.1261 13.4473L7.42897 17.7146L0.731812 13.4242L7.42897 9.15696L0.731812 4.91277L7.42897 0.645508L14.1261 4.91277ZM7.39433 19.087L14.0915 14.8197L20.7886 19.087L14.0915 23.3543L7.39433 19.087ZM14.1261 13.4242L20.8233 9.15696L14.1261 4.91277L20.7886 0.645508L27.4858 4.91277L20.7886 9.18003L27.4858 13.4473L20.7886 17.7146L14.1261 13.4242Z" fill="black"/>
<path d="M32.7396 4.91247H38.1551C41.6076 4.91247 44.4596 6.90771 44.4596 11.4633V12.4205C44.4596 17.0107 41.7923 19.0752 38.259 19.0752H32.7396V4.91247ZM35.7649 7.48436V16.4917H38.0858C40.0488 16.4917 41.3651 15.2116 41.3651 12.3629V11.6132C41.3651 8.76454 39.9795 7.48436 37.9819 7.48436H35.7649V7.48436ZM46.0647 7.62276H48.4895L48.8821 10.2869C49.344 8.47621 50.5217 7.50743 52.6579 7.50743H53.4084V10.5637H52.1614C49.7019 10.5637 49.1015 11.4172 49.1015 13.8391V19.1098H46.1108V7.62276H46.0647ZM54.0089 13.5969V13.274C54.0089 9.43346 56.4683 7.33443 59.8169 7.33443C63.2348 7.33443 65.625 9.43346 65.625 13.274V13.5969C65.625 17.3683 63.3041 19.3981 59.8169 19.3981C56.1104 19.3635 54.0089 17.3798 54.0089 13.5969ZM62.5651 13.5623V13.274C62.5651 11.1404 61.4912 9.86019 59.7823 9.86019C58.108 9.86019 56.9995 11.0366 56.9995 13.274V13.5623C56.9995 15.6268 58.0733 16.8031 59.7823 16.8031C61.4912 16.7685 62.5651 15.6268 62.5651 13.5623ZM67.1953 7.62276H69.6895L69.9781 9.79099C70.5786 8.33782 71.8603 7.33443 73.7539 7.33443C76.6753 7.33443 78.6036 9.43346 78.6036 13.3201V13.6431C78.6036 17.4144 76.4674 19.4096 73.7539 19.4096C71.9411 19.4096 70.694 18.5908 70.082 17.276V23.0772H67.1607L67.1953 7.62276ZM75.5668 13.5623V13.3086C75.5668 11.025 74.389 9.89479 72.8186 9.89479C71.1444 9.89479 70.0359 11.175 70.0359 13.3086V13.5277C70.0359 15.5576 71.1097 16.8377 72.784 16.8377C74.5045 16.8031 75.5668 15.7075 75.5668 13.5623ZM83.026 16.9877L82.772 19.0867H80.2086V3.78223H83.13V9.65259C83.7766 8.15329 85.0583 7.33443 86.8711 7.33443C89.6193 7.36903 91.6515 9.26047 91.6515 13.0664V13.4239C91.6515 17.2299 89.7232 19.4096 86.8018 19.4096C84.8735 19.3635 83.6265 18.4754 83.026 16.9877ZM88.5801 13.4239V13.1356C88.5801 11.0366 87.4369 9.86019 85.8319 9.86019C84.1923 9.86019 83.0491 11.175 83.0491 13.1702V13.4239C83.0491 15.5576 84.1576 16.8031 85.7973 16.8031C87.5524 16.8031 88.5801 15.7075 88.5801 13.4239ZM92.9332 13.5969V13.274C92.9332 9.43346 95.3927 7.33443 98.7413 7.33443C102.159 7.33443 104.549 9.43346 104.549 13.274V13.5969C104.549 17.3683 102.194 19.3981 98.7413 19.3981C95.0347 19.3635 92.9332 17.3798 92.9332 13.5969ZM101.512 13.5623V13.274C101.512 11.1404 100.439 9.86019 98.7297 9.86019C97.0554 9.86019 95.9469 11.0366 95.9469 13.274V13.5623C95.9469 15.6268 97.0208 16.8031 98.7297 16.8031C100.45 16.7685 101.512 15.6268 101.512 13.5623ZM108.464 13.1356L104.434 7.62276H107.886L110.207 11.0712L112.563 7.62276H115.981L111.893 13.101L116.2 19.0867H112.817L110.184 15.2808L107.621 19.0867H104.087L108.464 13.1356Z" fill="black"/>
</g>
<defs>
<clipPath id="clip0_2307_16308">
<rect width="115.468" height="22.7087" fill="white" transform="translate(0.731812 0.645508)"/>
</clipPath>
</defs>
</svg>
