<svg width="72" height="22" viewBox="0 0 72 22" fill="none" xmlns="http://www.w3.org/2000/svg">
<g clip-path="url(#clip0_2307_16348)">
<path d="M20.6753 0.780762C17.4109 0.780762 14.7543 3.43636 14.7543 6.70178V17.2453H12.5858V6.70568C12.5858 3.44025 9.93022 0.783684 6.66577 0.783684C3.40132 0.783684 0.744751 3.44025 0.744751 6.70471V20.9851H4.48168V6.70471C4.48168 5.50063 5.46072 4.52158 6.6648 4.52158C7.86888 4.52158 8.84792 5.50063 8.84792 6.70471V20.9851L18.4913 20.9802V6.70178C18.4913 5.49771 19.4703 4.51866 20.6744 4.51866C21.8785 4.51866 22.8575 5.49771 22.8575 6.70178V20.9822H26.5944V6.70178C26.5944 3.43733 23.9388 0.780762 20.6734 0.780762H20.6753Z" fill="black"/>
<path d="M37.3225 14.7532C37.3225 16.2573 36.0989 17.4819 34.5938 17.4819C33.0887 17.4819 31.8652 16.2583 31.8652 14.7532V6.70166H28.1282V14.7542C28.1282 18.3196 31.0283 21.2198 34.5938 21.2198C38.1593 21.2198 41.0594 18.3196 41.0594 14.7542V6.70166H37.3225V14.7542V14.7532Z" fill="black"/>
<path d="M72.0002 1.01172H68.2633V20.9813H72.0002V1.01172Z" fill="black"/>
<path d="M42.5934 20.9821H46.3303V10.4639H51.8032V6.70166H42.5934V20.9821Z" fill="black"/>
<path d="M62.9923 7.91937C61.833 7.02898 60.4049 6.50098 58.8618 6.50098C54.9963 6.50098 51.8526 9.80147 51.8526 13.8579C51.8526 17.9144 54.9972 21.2149 58.8618 21.2149C60.4058 21.2149 61.833 20.6869 62.9923 19.7965V20.9811H66.7292V6.70166H62.9923V7.92035V7.91937ZM62.9923 14.0372C62.9046 16.1521 61.2797 17.8442 59.2924 17.8442C57.305 17.8442 55.5885 16.0557 55.5885 13.8579C55.5885 11.6602 57.2505 9.87161 59.2924 9.87161C61.3342 9.87161 62.9046 11.5638 62.9923 13.6787V14.0362V14.0372Z" fill="black"/>
</g>
<defs>
<clipPath id="clip0_2307_16348">
<rect width="71.2559" height="20.4381" fill="white" transform="translate(0.744751 0.780762)"/>
</clipPath>
</defs>
</svg>
